<?xml version="1.0" encoding="UTF-8" standalone="no"?><!DOCTYPE svg PUBLIC "-//W3C//DTD SVG 1.1//EN" "http://www.w3.org/Graphics/SVG/1.1/DTD/svg11.dtd"><svg width="100%" height="100%" viewBox="0 0 46 46" version="1.1" xmlns="http://www.w3.org/2000/svg" xmlns:xlink="http://www.w3.org/1999/xlink" xml:space="preserve" xmlns:serif="http://www.serif.com/" style="fill-rule:evenodd;clip-rule:evenodd;stroke-linejoin:round;stroke-miterlimit:2;"><path d="M44.851,8.093l-36.758,36.758c-0.829,0.829 -2.176,0.829 -3.004,-0l-4.467,-4.467c-0.829,-0.829 -0.829,-2.175 -0,-3.004l36.758,-36.758c0.829,-0.829 2.175,-0.829 3.004,-0l4.467,4.467c0.829,0.828 0.829,2.175 -0,3.004Z" style="fill:#8a58a0;"/><path d="M8.288,0.82l36.366,36.367c0.937,0.936 0.938,2.458 0.001,3.394l-4.076,4.077c-0.937,0.936 -2.458,0.936 -3.395,-0.001l-36.367,-36.366c-0.937,-0.937 -0.937,-2.459 -0.001,-3.396l4.077,-4.076c0.936,-0.937 2.458,-0.936 3.395,0.001Z" style="fill:#5e3472;"/></svg>