<svg width="373" height="373" viewBox="0 0 373 373" fill="none" xmlns="http://www.w3.org/2000/svg">
<circle cx="186.5" cy="186.5" r="186.5" fill="#5E3472"/>
<path d="M178.267 229.85L164.158 206.6L182.066 195.516C191.11 189.929 198.346 184.792 203.772 180.106C209.38 175.42 213.45 170.554 215.982 165.508C218.696 160.461 220.053 154.694 220.053 148.206C220.053 138.293 216.706 130.363 210.013 124.415C203.32 118.287 195.271 115.223 185.864 115.223C178.81 115.223 171.664 116.755 164.429 119.819C157.374 122.703 150.681 127.569 144.35 134.418L140.823 138.203L124 120.09L126.985 116.846C134.22 108.915 142.722 102.337 152.49 97.1103C162.258 91.7034 174.016 89 187.764 89C199.16 89 209.38 91.6133 218.425 96.84C227.65 102.067 234.885 109.276 240.131 118.468C245.377 127.479 248 137.662 248 149.017C248 156.046 246.734 163.165 244.201 170.374C241.85 177.583 237.237 184.972 230.363 192.542C223.489 200.112 213.54 207.952 200.516 216.062L178.267 229.85ZM185.322 285C179.533 285 174.559 283.017 170.398 279.052C166.419 274.907 164.429 269.951 164.429 264.183C164.429 258.416 166.419 253.46 170.398 249.314C174.559 245.169 179.533 243.097 185.322 243.097C191.11 243.097 196.085 245.169 200.245 249.314C204.406 253.46 206.486 258.416 206.486 264.183C206.486 269.951 204.406 274.907 200.245 279.052C196.085 283.017 191.11 285 185.322 285Z" fill="white"/>
</svg>
