<?xml version="1.0" encoding="UTF-8" standalone="no"?><!DOCTYPE svg PUBLIC "-//W3C//DTD SVG 1.1//EN" "http://www.w3.org/Graphics/SVG/1.1/DTD/svg11.dtd"><svg width="100%" height="100%" viewBox="0 0 60 53" version="1.1" xmlns="http://www.w3.org/2000/svg" xmlns:xlink="http://www.w3.org/1999/xlink" xml:space="preserve" xmlns:serif="http://www.serif.com/" style="fill-rule:evenodd;clip-rule:evenodd;stroke-linejoin:round;stroke-miterlimit:2;"><path d="M29.569,10.638l-28.782,0.089c-0.434,-0 -0.787,-0.353 -0.787,-0.788l0,-2.341c0,-0.434 0.353,-0.787 0.787,-0.787l28.782,-0.089c0.435,0 0.788,0.353 0.788,0.787l-0,2.341c-0,0.435 -0.353,0.788 -0.788,0.788Z" style="fill:#5e3472;"/><path d="M58.565,10.638l-13.573,-0c-0.434,-0 -0.787,-0.353 -0.787,-0.788l0,-2.341c0,-0.434 0.353,-0.787 0.787,-0.787l13.573,0c0.434,0 0.787,0.353 0.787,0.787l0,2.341c0,0.435 -0.353,0.788 -0.787,0.788Z" style="fill:#5e3472;"/><path d="M37.931,0c4.791,0 8.68,3.889 8.68,8.68c0,4.79 -3.889,8.68 -8.68,8.68c-4.79,-0 -8.68,-3.89 -8.68,-8.68c0,-4.791 3.89,-8.68 8.68,-8.68Zm0,3.907c2.635,0 4.773,2.139 4.773,4.773c0,2.634 -2.138,4.773 -4.773,4.773c-2.634,-0 -4.772,-2.139 -4.772,-4.773c-0,-2.634 2.138,-4.773 4.772,-4.773Z" style="fill:#8a58a0;"/><path d="M29.569,45.838l-28.782,0.089c-0.434,-0 -0.787,-0.353 -0.787,-0.787l0,-2.341c0,-0.435 0.353,-0.788 0.787,-0.788l28.782,-0.088c0.435,-0 0.788,0.352 0.788,0.787l-0,2.341c-0,0.434 -0.353,0.787 -0.788,0.787Z" style="fill:#5e3472;"/><path d="M58.565,45.838l-13.573,-0c-0.434,-0 -0.787,-0.353 -0.787,-0.787l0,-2.341c0,-0.435 0.353,-0.787 0.787,-0.787l13.573,-0c0.434,-0 0.787,0.352 0.787,0.787l0,2.341c0,0.434 -0.353,0.787 -0.787,0.787Z" style="fill:#5e3472;"/><path d="M37.931,35.2c4.791,0 8.68,3.89 8.68,8.68c0,4.791 -3.889,8.68 -8.68,8.68c-4.79,0 -8.68,-3.889 -8.68,-8.68c0,-4.79 3.89,-8.68 8.68,-8.68Zm0,3.908c2.635,-0 4.773,2.138 4.773,4.772c0,2.634 -2.138,4.773 -4.773,4.773c-2.634,-0 -4.772,-2.139 -4.772,-4.773c-0,-2.634 2.138,-4.772 4.772,-4.772Z" style="fill:#8a58a0;"/><path d="M29.783,28.264l28.782,0.089c0.434,0 0.787,-0.353 0.787,-0.787l0,-2.341c0,-0.435 -0.353,-0.787 -0.787,-0.787l-28.782,-0.089c-0.435,-0 -0.787,0.353 -0.787,0.787l-0,2.341c-0,0.434 0.352,0.787 0.787,0.787Z" style="fill:#8a58a0;"/><path d="M0.787,28.264l13.573,0c0.434,0 0.787,-0.353 0.787,-0.787l0,-2.341c0,-0.434 -0.353,-0.787 -0.787,-0.787l-13.573,-0c-0.434,-0 -0.787,0.353 -0.787,0.787l0,2.341c0,0.434 0.353,0.787 0.787,0.787Z" style="fill:#8a58a0;"/><path d="M21.421,17.627c-4.791,-0 -8.68,3.889 -8.68,8.679c-0,4.791 3.889,8.68 8.68,8.68c4.79,0 8.68,-3.889 8.68,-8.68c-0,-4.79 -3.89,-8.679 -8.68,-8.679Zm-0,3.907c-2.634,-0 -4.773,2.138 -4.773,4.772c0,2.635 2.139,4.773 4.773,4.773c2.634,0 4.773,-2.138 4.773,-4.773c-0,-2.634 -2.139,-4.772 -4.773,-4.772Z" style="fill:#5e3472;"/></svg>